<mxfile host="app.diagrams.net" modified="2022-06-25T08:13:42.999Z" agent="5.0 (Windows NT 10.0; Win64; x64) AppleWebKit/537.36 (KHTML, like Gecko) Chrome/102.0.0.0 Safari/537.36" etag="CIbiyv8FruKA_AH5HEYs" version="20.0.3" type="github">
  <diagram id="C5RBs43oDa-KdzZeNtuy" name="Page-1">
    <mxGraphModel dx="1038" dy="521" grid="1" gridSize="10" guides="1" tooltips="1" connect="1" arrows="1" fold="1" page="1" pageScale="1" pageWidth="827" pageHeight="1169" math="0" shadow="0">
      <root>
        <mxCell id="WIyWlLk6GJQsqaUBKTNV-0" />
        <mxCell id="WIyWlLk6GJQsqaUBKTNV-1" parent="WIyWlLk6GJQsqaUBKTNV-0" />
        <mxCell id="Knt8PW-rZeRWvZ1xT_dB-7" style="edgeStyle=orthogonalEdgeStyle;rounded=0;orthogonalLoop=1;jettySize=auto;html=1;" edge="1" parent="WIyWlLk6GJQsqaUBKTNV-1" source="Knt8PW-rZeRWvZ1xT_dB-0" target="Knt8PW-rZeRWvZ1xT_dB-1">
          <mxGeometry relative="1" as="geometry" />
        </mxCell>
        <mxCell id="Knt8PW-rZeRWvZ1xT_dB-0" value="ආරම්බය" style="ellipse;whiteSpace=wrap;html=1;" vertex="1" parent="WIyWlLk6GJQsqaUBKTNV-1">
          <mxGeometry x="200" y="20" width="70" height="30" as="geometry" />
        </mxCell>
        <mxCell id="Knt8PW-rZeRWvZ1xT_dB-8" style="edgeStyle=orthogonalEdgeStyle;rounded=0;orthogonalLoop=1;jettySize=auto;html=1;entryX=0.5;entryY=0;entryDx=0;entryDy=0;" edge="1" parent="WIyWlLk6GJQsqaUBKTNV-1" source="Knt8PW-rZeRWvZ1xT_dB-1" target="Knt8PW-rZeRWvZ1xT_dB-3">
          <mxGeometry relative="1" as="geometry" />
        </mxCell>
        <mxCell id="Knt8PW-rZeRWvZ1xT_dB-1" value="අංකය ඇතුලත් කරන්න" style="shape=parallelogram;perimeter=parallelogramPerimeter;whiteSpace=wrap;html=1;fixedSize=1;" vertex="1" parent="WIyWlLk6GJQsqaUBKTNV-1">
          <mxGeometry x="120" y="80" width="260" height="20" as="geometry" />
        </mxCell>
        <mxCell id="Knt8PW-rZeRWvZ1xT_dB-9" style="edgeStyle=orthogonalEdgeStyle;rounded=0;orthogonalLoop=1;jettySize=auto;html=1;entryX=0.5;entryY=0;entryDx=0;entryDy=0;" edge="1" parent="WIyWlLk6GJQsqaUBKTNV-1" source="Knt8PW-rZeRWvZ1xT_dB-3" target="Knt8PW-rZeRWvZ1xT_dB-4">
          <mxGeometry relative="1" as="geometry" />
        </mxCell>
        <mxCell id="Knt8PW-rZeRWvZ1xT_dB-3" value="n = ඇතුලත් කල අංකය&lt;br&gt;i=1" style="rounded=0;whiteSpace=wrap;html=1;" vertex="1" parent="WIyWlLk6GJQsqaUBKTNV-1">
          <mxGeometry x="190" y="140" width="120" height="60" as="geometry" />
        </mxCell>
        <mxCell id="Knt8PW-rZeRWvZ1xT_dB-10" value="yes" style="edgeStyle=orthogonalEdgeStyle;rounded=0;orthogonalLoop=1;jettySize=auto;html=1;entryX=0.5;entryY=0;entryDx=0;entryDy=0;" edge="1" parent="WIyWlLk6GJQsqaUBKTNV-1" source="Knt8PW-rZeRWvZ1xT_dB-4" target="Knt8PW-rZeRWvZ1xT_dB-6">
          <mxGeometry relative="1" as="geometry" />
        </mxCell>
        <mxCell id="Knt8PW-rZeRWvZ1xT_dB-17" value="no" style="edgeStyle=orthogonalEdgeStyle;rounded=0;orthogonalLoop=1;jettySize=auto;html=1;" edge="1" parent="WIyWlLk6GJQsqaUBKTNV-1" source="Knt8PW-rZeRWvZ1xT_dB-4" target="Knt8PW-rZeRWvZ1xT_dB-16">
          <mxGeometry relative="1" as="geometry" />
        </mxCell>
        <mxCell id="Knt8PW-rZeRWvZ1xT_dB-4" value="if i &amp;lt; 6" style="rhombus;whiteSpace=wrap;html=1;" vertex="1" parent="WIyWlLk6GJQsqaUBKTNV-1">
          <mxGeometry x="210" y="220" width="80" height="80" as="geometry" />
        </mxCell>
        <mxCell id="Knt8PW-rZeRWvZ1xT_dB-12" style="edgeStyle=orthogonalEdgeStyle;rounded=0;orthogonalLoop=1;jettySize=auto;html=1;entryX=0.405;entryY=0.003;entryDx=0;entryDy=0;entryPerimeter=0;" edge="1" parent="WIyWlLk6GJQsqaUBKTNV-1" source="Knt8PW-rZeRWvZ1xT_dB-6" target="Knt8PW-rZeRWvZ1xT_dB-11">
          <mxGeometry relative="1" as="geometry" />
        </mxCell>
        <mxCell id="Knt8PW-rZeRWvZ1xT_dB-6" value="val= n x i&lt;br&gt;i=i+1" style="rounded=0;whiteSpace=wrap;html=1;" vertex="1" parent="WIyWlLk6GJQsqaUBKTNV-1">
          <mxGeometry x="190" y="330" width="120" height="60" as="geometry" />
        </mxCell>
        <mxCell id="Knt8PW-rZeRWvZ1xT_dB-14" style="edgeStyle=orthogonalEdgeStyle;rounded=0;orthogonalLoop=1;jettySize=auto;html=1;entryX=1;entryY=0.5;entryDx=0;entryDy=0;" edge="1" parent="WIyWlLk6GJQsqaUBKTNV-1" source="Knt8PW-rZeRWvZ1xT_dB-11" target="Knt8PW-rZeRWvZ1xT_dB-4">
          <mxGeometry relative="1" as="geometry">
            <Array as="points">
              <mxPoint x="380" y="450" />
              <mxPoint x="380" y="260" />
            </Array>
          </mxGeometry>
        </mxCell>
        <mxCell id="Knt8PW-rZeRWvZ1xT_dB-11" value="val&amp;nbsp; දක්වන්න" style="shape=parallelogram;perimeter=parallelogramPerimeter;whiteSpace=wrap;html=1;fixedSize=1;" vertex="1" parent="WIyWlLk6GJQsqaUBKTNV-1">
          <mxGeometry x="157.5" y="420" width="185" height="60" as="geometry" />
        </mxCell>
        <mxCell id="Knt8PW-rZeRWvZ1xT_dB-16" value="නිමාව" style="ellipse;whiteSpace=wrap;html=1;" vertex="1" parent="WIyWlLk6GJQsqaUBKTNV-1">
          <mxGeometry x="30" y="230" width="120" height="60" as="geometry" />
        </mxCell>
      </root>
    </mxGraphModel>
  </diagram>
</mxfile>
